<svg width="104" height="104" viewBox="0 0 104 104" xmlns="http://www.w3.org/2000/svg" xmlns:xlink="http://www.w3.org/1999/xlink"><title>Group 2</title><defs><radialGradient cx="63.927%" cy="70.029%" fx="63.927%" fy="70.029%" r="25.249%" id="c"><stop stop-color="#56A0FF" offset="0%"/><stop stop-color="#0093E2" offset="100%"/></radialGradient><circle id="a" cx="52" cy="52" r="52"/><mask id="b" x="0" y="0" width="104" height="104" fill="#fff"><use xlink:href="#a"/></mask></defs><g fill="none" fill-rule="evenodd"><use stroke-opacity=".03" stroke="#000" mask="url(#b)" stroke-width="10" fill="url(#c)" xlink:href="#a"/><path d="M50.807 53.447c.702-1.663 1.296-2.967 1.784-3.911.366-.702.71-1.294 1.03-1.775a9.33 9.33 0 0 1 1.167-1.407 4.53 4.53 0 0 1 1.58-1.03c.593-.228 1.257-.342 1.989-.342h5.858v4.393a.7.7 0 0 0 .216.514.703.703 0 0 0 .514.218c.215 0 .39-.068.527-.205l7.32-7.323a.709.709 0 0 0 .208-.526.714.714 0 0 0-.207-.527l-7.298-7.297c-.183-.154-.367-.229-.55-.229a.715.715 0 0 0-.526.206.719.719 0 0 0-.204.526v4.392h-5.858c-1.037 0-2.013.126-2.929.379-.914.25-1.728.571-2.436.96-.71.389-1.396.911-2.06 1.568a18.224 18.224 0 0 0-1.692 1.9c-.465.608-.954 1.372-1.465 2.286a33.41 33.41 0 0 0-1.235 2.402c-.313.687-.69 1.534-1.133 2.54-.702 1.663-1.297 2.967-1.785 3.913a19.736 19.736 0 0 1-1.028 1.773c-.32.48-.71.95-1.167 1.407a4.497 4.497 0 0 1-1.58 1.03c-.593.229-1.257.343-1.99.343h-5.125a.713.713 0 0 0-.526.205.713.713 0 0 0-.206.527v4.393c0 .214.07.39.207.527a.713.713 0 0 0 .527.206h5.124c1.038 0 2.014-.127 2.928-.38.915-.25 1.728-.57 2.437-.96.709-.388 1.396-.91 2.06-1.568a18.547 18.547 0 0 0 1.693-1.897c.465-.61.953-1.373 1.463-2.289a33.28 33.28 0 0 0 1.236-2.402c.312-.687.69-1.533 1.132-2.54zm-18.075-8.465h5.126c.67 0 1.291.111 1.863.332.573.22 1.053.488 1.442.8.389.313.778.744 1.168 1.293.388.549.696 1.034.925 1.453.23.419.511.973.847 1.659 1.174-2.76 2.22-4.843 3.135-6.246-2.44-3.432-5.568-5.147-9.38-5.147h-5.126a.713.713 0 0 0-.526.205.712.712 0 0 0-.206.527v4.392c0 .214.068.39.206.526a.713.713 0 0 0 .526.206zm32.763 9.748c-.183-.154-.366-.23-.55-.23a.709.709 0 0 0-.525.206.714.714 0 0 0-.205.527v4.393h-5.858c-.672 0-1.293-.11-1.865-.333-.571-.22-1.053-.487-1.44-.801-.39-.312-.778-.743-1.168-1.293a14.895 14.895 0 0 1-.927-1.452 42.65 42.65 0 0 1-.846-1.659c-1.175 2.745-2.212 4.828-3.11 6.246.41.595.837 1.126 1.28 1.59.441.465.86.874 1.258 1.223.397.351.846.657 1.35.916.503.26.946.476 1.327.652.383.175.862.316 1.441.423.58.107 1.068.187 1.464.24.397.054.938.092 1.625.116.687.021 1.243.03 1.67.021.427-.006 1.045-.015 1.854-.021.808-.009 1.457-.013 1.945-.013v4.393c0 .2.072.37.216.515a.704.704 0 0 0 .516.218c.214 0 .39-.069.525-.206l7.322-7.322a.711.711 0 0 0 .206-.525.709.709 0 0 0-.207-.527l-7.298-7.297z" fill="#FFF" opacity=".2"/></g></svg>