<svg width="16" height="15" viewBox="0 0 16 15" xmlns="http://www.w3.org/2000/svg"><title>Combined Shape</title><path d="M7.34 8.305c.273-.649.505-1.158.695-1.527.143-.273.278-.504.402-.692.125-.187.277-.37.455-.549a1.79 1.79 0 0 1 .617-.402c.232-.09.49-.134.776-.134h2.286v1.715a.27.27 0 0 0 .085.2.274.274 0 0 0 .2.086.278.278 0 0 0 .206-.08l2.857-2.858a.277.277 0 0 0 .08-.206.279.279 0 0 0-.08-.205L13.07.805a.336.336 0 0 0-.215-.089.279.279 0 0 0-.205.08.28.28 0 0 0-.08.206v1.714h-2.286a4.38 4.38 0 0 0-2.094.523 3.623 3.623 0 0 0-.803.611 7.112 7.112 0 0 0-.66.741 7.541 7.541 0 0 0-.572.893c-.2.356-.36.67-.482.937-.122.268-.27.598-.442.991a22.943 22.943 0 0 1-.697 1.527 7.667 7.667 0 0 1-.4.692c-.126.187-.278.37-.456.549a1.75 1.75 0 0 1-.617.402 2.14 2.14 0 0 1-.776.134h-2a.278.278 0 0 0-.206.08A.278.278 0 0 0 0 11v1.715c0 .083.027.152.08.205.054.054.123.08.206.08h2a4.373 4.373 0 0 0 2.094-.523c.276-.15.544-.355.803-.611.26-.256.48-.503.661-.74.181-.239.372-.536.571-.894.2-.356.36-.669.482-.937s.27-.598.442-.991zM.285 5.001h2a2.093 2.093 0 0 1 1.29.442 2.5 2.5 0 0 1 .455.505c.152.214.272.404.361.567.09.163.2.38.331.647.458-1.077.866-1.89 1.223-2.437-.952-1.34-2.173-2.009-3.66-2.009h-2a.278.278 0 0 0-.206.08.278.278 0 0 0-.08.206v1.714c0 .083.027.152.08.205.054.054.122.08.206.08zM13.07 8.805a.334.334 0 0 0-.215-.09.277.277 0 0 0-.205.081.279.279 0 0 0-.08.206v1.714h-2.286c-.262 0-.504-.043-.727-.13a2.077 2.077 0 0 1-.563-.312 2.479 2.479 0 0 1-.455-.505 5.812 5.812 0 0 1-.362-.567c-.09-.163-.2-.38-.33-.647-.459 1.071-.863 1.884-1.214 2.437.16.232.327.44.5.62.172.182.336.342.49.478.156.137.331.256.527.358.197.1.37.185.518.254.15.068.337.123.563.165.226.042.417.073.571.094.155.02.366.036.634.045.268.008.485.012.652.008a97.249 97.249 0 0 1 1.482-.013v1.714c0 .078.028.145.085.2a.275.275 0 0 0 .2.086.276.276 0 0 0 .206-.08l2.857-2.858a.277.277 0 0 0 .08-.204.277.277 0 0 0-.08-.206L13.07 8.805z" fill-rule="evenodd" opacity=".8"/></svg>