<svg width="104" height="104" viewBox="0 0 104 104" xmlns="http://www.w3.org/2000/svg" xmlns:xlink="http://www.w3.org/1999/xlink"><title>Group 3</title><defs><radialGradient cx="63.927%" cy="70.029%" fx="63.927%" fy="70.029%" r="24.733%" id="c"><stop stop-color="#ECC94B" offset="0%"/><stop stop-color="#E2B100" offset="100%"/></radialGradient><circle id="a" cx="52" cy="52" r="52"/><mask id="b" x="0" y="0" width="104" height="104" fill="#fff"><use xlink:href="#a"/></mask></defs><g fill="none" fill-rule="evenodd"><use stroke-opacity=".03" stroke="#000" mask="url(#b)" stroke-width="10" fill="url(#c)" xlink:href="#a"/><path d="M55.512 56.53v7.414c0 .333.121.625.367.868.245.245.534.368.867.368.361 0 .657-.116.888-.347l12.354-12.356c.233-.231.35-.527.35-.888 0-.359-.117-.655-.35-.889L57.674 38.386c-.31-.259-.62-.386-.928-.386-.361 0-.655.116-.889.347-.228.232-.345.528-.345.889V56.53zm-18 0v7.414c0 .333.121.625.367.868.245.245.534.368.867.368.361 0 .657-.116.888-.347l12.354-12.356c.233-.231.35-.527.35-.888 0-.359-.117-.655-.35-.889L39.674 38.386c-.31-.259-.62-.386-.928-.386-.361 0-.655.116-.889.347-.228.232-.345.528-.345.889V56.53z" fill="#FFF" opacity=".25"/></g></svg>