<svg width="144" height="144" viewBox="0 0 144 144" xmlns="http://www.w3.org/2000/svg" xmlns:xlink="http://www.w3.org/1999/xlink"><title>Group 2</title><defs><radialGradient cx="63.927%" cy="70.029%" fx="63.927%" fy="70.029%" r="24.733%" id="d"><stop stop-color="#ECC94B" offset="0%"/><stop stop-color="#E2B100" offset="100%"/></radialGradient><circle id="a" cx="52" cy="52" r="52"/><filter x="-50%" y="-50%" width="200%" height="200%" filterUnits="objectBoundingBox" id="b"><feOffset in="SourceAlpha" result="shadowOffsetOuter1"/><feGaussianBlur stdDeviation="10" in="shadowOffsetOuter1" result="shadowBlurOuter1"/><feComposite in="shadowBlurOuter1" in2="SourceAlpha" operator="out" result="shadowBlurOuter1"/><feColorMatrix values="0 0 0 0 1 0 0 0 0 0.826086957 0 0 0 0 0 0 0 0 0.2 0" in="shadowBlurOuter1"/></filter><mask id="c" x="0" y="0" width="104" height="104" fill="#fff"><use xlink:href="#a"/></mask></defs><g fill="none" fill-rule="evenodd"><g transform="translate(20 20)"><use fill="#000" filter="url(#b)" xlink:href="#a"/><use stroke-opacity=".03" stroke="#000" mask="url(#c)" stroke-width="10" fill="url(#d)" xlink:href="#a"/></g><path d="M75.512 76.53v7.414c0 .333.121.625.367.868.245.245.534.368.867.368.361 0 .657-.116.888-.347l12.354-12.356c.233-.231.35-.527.35-.888 0-.359-.117-.655-.35-.889L77.674 58.386c-.31-.259-.62-.386-.928-.386-.361 0-.655.116-.889.347-.228.232-.345.528-.345.889V76.53zm-18 0v7.414c0 .333.121.625.367.868.245.245.534.368.867.368.361 0 .657-.116.888-.347l12.354-12.356c.233-.231.35-.527.35-.888 0-.359-.117-.655-.35-.889L59.674 58.386c-.31-.259-.62-.386-.928-.386-.361 0-.655.116-.889.347-.228.232-.345.528-.345.889V76.53z" fill="#FFF"/></g></svg>