<?xml version="1.0" encoding="UTF-8" standalone="no"?>
<svg width="144px" height="144px" viewBox="0 0 144 144" version="1.1" xmlns="http://www.w3.org/2000/svg" xmlns:xlink="http://www.w3.org/1999/xlink">
    <!-- Generator: Sketch 40.2 (33826) - http://www.bohemiancoding.com/sketch -->
    <title>Group 3</title>
    <desc>Created with Sketch.</desc>
    <defs>
        <radialGradient cx="63.9274%" cy="70.029389%" fx="63.9274%" fy="70.029389%" r="25.2485303%" id="radialGradient-1">
            <stop stop-color="#56A0FF" offset="0%"></stop>
            <stop stop-color="#0093E2" offset="100%"></stop>
        </radialGradient>
        <circle id="path-2" cx="52" cy="52" r="52"></circle>
        <filter x="-50%" y="-50%" width="200%" height="200%" filterUnits="objectBoundingBox" id="filter-3">
            <feOffset dx="0" dy="0" in="SourceAlpha" result="shadowOffsetOuter1"></feOffset>
            <feGaussianBlur stdDeviation="10" in="shadowOffsetOuter1" result="shadowBlurOuter1"></feGaussianBlur>
            <feComposite in="shadowBlurOuter1" in2="SourceAlpha" operator="out" result="shadowBlurOuter1"></feComposite>
            <feColorMatrix values="0 0 0 0 0   0 0 0 0 0.576470588   0 0 0 0 0.882352941  0 0 0 0.2 0" type="matrix" in="shadowBlurOuter1"></feColorMatrix>
        </filter>
        <mask id="mask-4" maskContentUnits="userSpaceOnUse" maskUnits="objectBoundingBox" x="0" y="0" width="104" height="104" fill="white">
            <use xlink:href="#path-2"></use>
        </mask>
    </defs>
    <g id="Page-1" stroke="none" stroke-width="1" fill="none" fill-rule="evenodd">
        <g id="Desktop-HD" transform="translate(-84.000000, -447.000000)">
            <g id="Group-3" transform="translate(104.000000, 467.000000)">
                <g id="Oval">
                    <use fill="black" fill-opacity="1" filter="url(#filter-3)" xlink:href="#path-2"></use>
                    <use stroke-opacity="0.03" stroke="#000000" mask="url(#mask-4)" stroke-width="10" fill="url(#radialGradient-1)" fill-rule="evenodd" xlink:href="#path-2"></use>
                </g>
                <path d="M50.8071849,53.4474534 C51.5092337,51.7842998 52.1031669,50.4802442 52.5910908,49.5356375 C52.9572093,48.8335888 53.3015642,48.2424637 53.6209964,47.7612092 C53.9418327,47.2813589 54.3297146,46.8123903 54.7878015,46.3543035 C55.2458883,45.8979718 55.7724249,45.5536168 56.3674112,45.3247489 C56.9609935,45.09553 57.6247806,44.9817981 58.3570175,44.9817981 L64.2145615,44.9817981 L64.2145615,49.3752194 C64.2145615,49.5724951 64.2861705,49.7451991 64.4314946,49.8894701 C64.5768187,50.0347942 64.7481186,50.1074563 64.9453943,50.1074563 C65.1595192,50.1074563 65.3350314,50.0386555 65.4719309,49.901756 L72.7928956,42.5793872 C72.9311992,42.4424876 73,42.2669755 73,42.0528506 C73,41.8404808 72.9311992,41.6649686 72.7928956,41.526314 L65.4954495,34.2288679 C65.3115127,34.0754702 65.127927,34 64.9453943,34 C64.7316204,34 64.5575124,34.0684498 64.4188577,34.2057003 C64.2833623,34.3429508 64.2145615,34.518463 64.2145615,34.7322369 L64.2145615,39.1242541 L58.3570175,39.1242541 C57.3204425,39.1242541 56.3442436,39.2502718 55.42807,39.5026584 C54.5136514,39.7536408 53.7003279,40.0744771 52.9916097,40.4637632 C52.2825404,40.8519961 51.5955857,41.3743204 50.9321496,42.0310871 C50.2683624,42.6864496 49.7049683,43.3200486 49.239861,43.930129 C48.7751047,44.5388053 48.2857767,45.3026344 47.7753872,46.217404 C47.2639447,47.1318225 46.8525441,47.9339132 46.5401324,48.6194639 C46.2273696,49.3064186 45.8503694,50.1527384 45.4073766,51.1591253 C44.7053279,52.8222789 44.1103415,54.1263345 43.6220666,55.0723453 C43.2573522,55.77299 42.9133483,56.364115 42.5939161,56.8453695 C42.2730799,57.3252198 41.8834428,57.7941884 41.42676,58.2522752 C40.9690242,58.7103621 40.4424876,59.0529619 39.8471503,59.2818298 C39.253568,59.5110487 38.5897809,59.6247806 37.8578951,59.6247806 L32.7322369,59.6247806 C32.518463,59.6247806 32.3429508,59.6932304 32.2057003,59.8304809 C32.0684498,59.9677314 32,60.1432436 32,60.3570175 L32,64.7504388 C32,64.9642126 32.0698539,65.1397248 32.2071044,65.2769754 C32.3440039,65.4138749 32.5195161,65.4826757 32.733641,65.4826757 L37.8578951,65.4826757 C38.8958742,65.4826757 39.872073,65.3563069 40.7864916,65.1039203 C41.7012611,64.8532889 42.5142336,64.5321016 43.2233029,64.1428156 C43.9320211,63.7549336 44.6189759,63.2322583 45.282763,62.5754916 C45.9461991,61.9201291 46.5099443,61.2865301 46.9761047,60.6778538 C47.440861,60.0677734 47.9291359,59.3053484 48.4391743,58.3891748 C48.9506169,57.4747562 49.3620174,56.6740696 49.6747802,55.9871148 C49.9871919,55.3001601 50.3655962,54.4541913 50.8071849,53.4474534 Z M32.7322369,44.9817981 L37.8578951,44.9817981 C38.5283516,44.9817981 39.1493138,45.0930728 39.7211325,45.3135162 C40.2943554,45.5343105 40.7742057,45.8017911 41.1634918,46.1145538 C41.5517247,46.4269655 41.9410108,46.8576725 42.3306479,47.4073766 C42.7185298,47.9560278 43.0270802,48.4414945 43.2559482,48.8595646 C43.4851671,49.2790387 43.7673907,49.8329552 44.103321,50.5188569 C45.2771466,47.758401 46.3221462,45.6757733 47.2379689,44.2730799 C44.7972963,40.8407633 41.6696689,39.1256582 37.8578951,39.1256582 L32.7322369,39.1256582 C32.518463,39.1256582 32.3429508,39.1941079 32.2057003,39.3313585 C32.0684498,39.468258 32,39.6437702 32,39.8578951 L32,44.2495612 C32,44.4636861 32.0684498,44.6391983 32.2057003,44.7760978 C32.3429508,44.9133483 32.518463,44.9817981 32.7322369,44.9817981 Z M65.4954495,54.7297455 C65.3115127,54.5759968 65.1293311,54.5005265 64.9453943,54.5005265 C64.7316204,54.5005265 64.5561083,54.5693273 64.4202618,54.7062268 C64.2833623,54.8434774 64.2145615,55.0189896 64.2145615,55.2327634 L64.2145615,59.6261847 L58.3570175,59.6261847 C57.6851568,59.6261847 57.0638436,59.515261 56.4920249,59.2930626 C55.9205572,59.0722682 55.4389517,58.8061917 55.0510698,58.4920249 C54.6617837,58.1796132 54.2735507,57.7489063 53.8842647,57.1992021 C53.4946276,56.6505509 53.1860772,56.1664883 52.9572093,55.7470142 C52.7283414,55.32754 52.4457667,54.7736235 52.1112405,54.0880729 C50.9360108,56.8330836 49.8994358,58.9157113 49.0001113,60.3338499 C49.4115119,60.9288362 49.8376555,61.4595851 50.2806483,61.9243414 C50.722237,62.3890977 51.1417111,62.7976901 51.5394218,63.1473104 C51.9357283,63.4983348 52.3853905,63.804077 52.8887595,64.063484 C53.3917775,64.32254 53.8347703,64.5391221 54.2159827,64.7146343 C54.5985993,64.8901465 55.0784497,65.0312583 55.6572889,65.1383207 C56.2371812,65.2453832 56.7254561,65.3247147 57.1214116,65.3784214 C57.5177182,65.4317771 58.0593488,65.4700388 58.7463035,65.4935574 C59.4332583,65.5153209 59.9885789,65.5237455 60.4164776,65.5153209 C60.8429722,65.5086515 61.4614772,65.5002269 62.2702374,65.4935574 C63.0779445,65.4851328 63.7266376,65.4812716 64.2145615,65.4812716 L64.2145615,69.8743418 C64.2145615,70.0733727 64.2872236,70.2446726 64.4314946,70.3885926 C64.5768187,70.5339167 64.7481186,70.6065787 64.9467984,70.6065787 C65.1609233,70.6065787 65.3364355,70.538129 65.4719309,70.4008784 L72.7942997,63.0788606 C72.9311992,62.9416101 73,62.767502 73,62.5537281 C73,62.3396033 72.9311992,62.1640911 72.7928956,62.0271915 L65.4954495,54.7297455 Z" id="Combined-Shape" fill="#FFFFFF"></path>
            </g>
        </g>
    </g>
</svg>