<?xml version="1.0" encoding="UTF-8" standalone="no"?>
<svg width="16px" height="15px" viewBox="0 0 16 15" version="1.1" xmlns="http://www.w3.org/2000/svg" xmlns:xlink="http://www.w3.org/1999/xlink">
    <!-- Generator: Sketch 40.2 (33826) - http://www.bohemiancoding.com/sketch -->
    <title>Combined Shape</title>
    <desc>Created with Sketch.</desc>
    <defs></defs>
    <g id="Page-1" stroke="none" stroke-width="1" fill="none" fill-rule="evenodd" opacity="0.800000012">
        <g id="Desktop-HD" transform="translate(-322.000000, -137.000000)" fill="#000000">
            <path d="M329.339135,145.304988 C329.613096,144.655974 329.844867,144.147092 330.03527,143.778478 C330.17814,143.504517 330.312518,143.273842 330.43717,143.086042 C330.56237,142.89879 330.713734,142.715784 330.892493,142.537025 C331.071252,142.35895 331.276723,142.224573 331.508905,142.135261 C331.740539,142.045813 331.999568,142.001432 332.28531,142.001432 L334.571101,142.001432 L334.571101,143.715878 C334.571101,143.792861 334.599045,143.860255 334.655755,143.916554 C334.712465,143.973264 334.779312,144.001619 334.856295,144.001619 C334.939853,144.001619 335.008343,143.974771 335.061765,143.921349 L337.918628,141.063938 C337.972598,141.010515 337.999447,140.942025 337.999447,140.858467 C337.999447,140.775594 337.972598,140.707104 337.918628,140.652997 L335.070943,137.805311 C334.999165,137.745451 334.927524,137.716 334.856295,137.716 C334.772873,137.716 334.704931,137.742711 334.650824,137.796271 C334.59795,137.84983 334.571101,137.91832 334.571101,138.001741 L334.571101,139.71564 L332.28531,139.71564 C331.880806,139.71564 331.499864,139.764816 331.142345,139.863305 C330.785511,139.961246 330.468128,140.086446 330.191564,140.238357 C329.914864,140.389857 329.646793,140.593684 329.3879,140.849974 C329.12887,141.105717 328.909017,141.352966 328.727518,141.591038 C328.546156,141.828562 328.355205,142.126632 328.156036,142.483602 C327.956455,142.840436 327.795914,143.153437 327.674002,143.420959 C327.551952,143.68903 327.404835,144.01929 327.231966,144.412012 C326.958005,145.061026 326.725823,145.569908 326.535284,145.93907 C326.392961,146.212483 326.25872,146.443158 326.134068,146.630958 C326.008868,146.81821 325.85682,147.001216 325.678608,147.179975 C325.499986,147.358735 325.294515,147.492427 325.062197,147.581739 C324.830563,147.671187 324.571533,147.715568 324.285929,147.715568 L322.285741,147.715568 C322.20232,147.715568 322.13383,147.74228 322.080271,147.795839 C322.026711,147.849398 322,147.917889 322,148.00131 L322,149.715756 C322,149.799177 322.027259,149.867667 322.080818,149.921227 C322.134241,149.974649 322.202731,150.001497 322.286289,150.001497 L324.285929,150.001497 C324.69098,150.001497 325.071922,149.952184 325.428756,149.853695 C325.785727,149.755891 326.102974,149.630554 326.379674,149.478643 C326.656237,149.32728 326.924308,149.123316 327.183338,148.867026 C327.442231,148.611283 327.662221,148.364034 327.844131,148.12651 C328.025493,147.888438 328.216033,147.590916 328.415066,147.233398 C328.614646,146.876564 328.775187,146.564111 328.897237,146.296041 C329.019149,146.02797 329.166814,145.697847 329.339135,145.304988 Z M322.285741,142.001432 L324.285929,142.001432 C324.547561,142.001432 324.78988,142.044854 325.013021,142.130878 C325.23671,142.217039 325.423962,142.321418 325.575873,142.443467 C325.727373,142.56538 325.879285,142.733455 326.031333,142.947966 C326.182696,143.162066 326.303102,143.35151 326.392413,143.514654 C326.481861,143.678345 326.591994,143.894501 326.723084,144.16216 C327.181146,143.084946 327.588937,142.272242 327.946319,141.724868 C326.993894,140.385474 325.773399,139.716188 324.285929,139.716188 L322.285741,139.716188 C322.20232,139.716188 322.13383,139.742899 322.080271,139.796458 C322.026711,139.849881 322,139.918371 322,140.001929 L322,141.71569 C322,141.799248 322.026711,141.867739 322.080271,141.921161 C322.13383,141.97472 322.20232,142.001432 322.285741,142.001432 Z M335.070943,145.805377 C334.999165,145.74538 334.928072,145.715929 334.856295,145.715929 C334.772873,145.715929 334.704383,145.742777 334.651372,145.796199 C334.59795,145.849759 334.571101,145.918249 334.571101,146.00167 L334.571101,147.716116 L332.28531,147.716116 C332.023129,147.716116 331.780674,147.672831 331.557533,147.586122 C331.334529,147.499961 331.146592,147.39613 330.995228,147.273533 C330.843317,147.15162 330.691817,146.983545 330.539905,146.769034 C330.387857,146.554934 330.267451,146.366038 330.17814,146.202346 C330.088829,146.038655 329.97856,145.822499 329.848018,145.554977 C329.389407,146.626163 328.984904,147.438868 328.63396,147.992269 C328.794501,148.224451 328.960796,148.431565 329.133665,148.612927 C329.305986,148.794289 329.469678,148.953734 329.624876,149.090167 C329.779527,149.227147 329.954999,149.346457 330.151429,149.447686 C330.347722,149.548777 330.520591,149.633294 330.669352,149.701784 C330.818661,149.770274 331.005913,149.82534 331.231793,149.867119 C331.458085,149.908898 331.648625,149.939856 331.803139,149.960814 C331.957789,149.981635 332.16915,149.996566 332.437221,150.005744 C332.705291,150.014236 332.921994,150.017524 333.088974,150.014236 C333.255405,150.011634 333.496764,150.008346 333.812367,150.005744 C334.127559,150.002456 334.380699,150.000949 334.571101,150.000949 L334.571101,151.715259 C334.571101,151.792927 334.599456,151.859773 334.655755,151.915935 C334.712465,151.972645 334.779312,152.001 334.856842,152.001 C334.9404,152.001 335.008891,151.974289 335.061765,151.920729 L337.919176,149.063456 C337.972598,149.009896 337.999447,148.941954 337.999447,148.858533 C337.999447,148.774975 337.972598,148.706485 337.918628,148.653062 L335.070943,145.805377 Z" id="Combined-Shape"></path>
        </g>
    </g>
</svg>