<?xml version="1.0" encoding="UTF-8" standalone="no"?>
<svg width="144px" height="144px" viewBox="0 0 144 144" version="1.1" xmlns="http://www.w3.org/2000/svg" xmlns:xlink="http://www.w3.org/1999/xlink">
    <!-- Generator: Sketch 40.2 (33826) - http://www.bohemiancoding.com/sketch -->
    <title>Group 2</title>
    <desc>Created with Sketch.</desc>
    <defs>
        <radialGradient cx="63.9274%" cy="70.029389%" fx="63.9274%" fy="70.029389%" r="24.7332542%" id="radialGradient-1">
            <stop stop-color="#ECC94B" offset="0%"></stop>
            <stop stop-color="#E2B100" offset="100%"></stop>
        </radialGradient>
        <circle id="path-2" cx="52" cy="52" r="52"></circle>
        <filter x="-50%" y="-50%" width="200%" height="200%" filterUnits="objectBoundingBox" id="filter-3">
            <feOffset dx="0" dy="0" in="SourceAlpha" result="shadowOffsetOuter1"></feOffset>
            <feGaussianBlur stdDeviation="10" in="shadowOffsetOuter1" result="shadowBlurOuter1"></feGaussianBlur>
            <feComposite in="shadowBlurOuter1" in2="SourceAlpha" operator="out" result="shadowBlurOuter1"></feComposite>
            <feColorMatrix values="0 0 0 0 1   0 0 0 0 0.826086957   0 0 0 0 0  0 0 0 0.2 0" type="matrix" in="shadowBlurOuter1"></feColorMatrix>
        </filter>
        <mask id="mask-4" maskContentUnits="userSpaceOnUse" maskUnits="objectBoundingBox" x="0" y="0" width="104" height="104" fill="white">
            <use xlink:href="#path-2"></use>
        </mask>
    </defs>
    <g id="Page-1" stroke="none" stroke-width="1" fill="none" fill-rule="evenodd">
        <g id="Desktop-HD" transform="translate(-172.000000, -360.000000)">
            <g id="Group-2" transform="translate(192.000000, 380.000000)">
                <g id="Oval">
                    <use fill="black" fill-opacity="1" filter="url(#filter-3)" xlink:href="#path-2"></use>
                    <use stroke-opacity="0.03" stroke="#000000" mask="url(#mask-4)" stroke-width="10" fill="url(#radialGradient-1)" fill-rule="evenodd" xlink:href="#path-2"></use>
                </g>
                <path d="M55.5124502,56.5308761 L55.5124502,63.9444111 C55.5124502,64.2772976 55.6332844,64.5687213 55.8785068,64.8121667 C56.1237292,65.0573891 56.4127836,65.1800003 56.74567,65.1800003 C57.1069881,65.1800003 57.4031504,65.0639047 57.634157,64.8328981 L69.9876795,52.4770063 C70.2210554,52.2459997 70.337151,51.9498374 70.337151,51.5885193 C70.337151,51.2301629 70.2210554,50.9340006 69.9876795,50.7000324 L57.6738427,38.3861957 C57.3634646,38.1273498 57.0536788,38 56.74567,38 C56.3849443,38 56.0911513,38.1155033 55.8571831,38.3471022 C55.6285458,38.5787012 55.5124502,38.8748635 55.5124502,39.2355892 L55.5124502,46.646755 L55.5124502,56.5308761 Z M37.5124502,56.5308761 L37.5124502,63.9444111 C37.5124502,64.2772976 37.6332844,64.5687213 37.8785068,64.8121667 C38.1237292,65.0573891 38.4127836,65.1800003 38.74567,65.1800003 C39.1069881,65.1800003 39.4031504,65.0639047 39.634157,64.8328981 L51.9876795,52.4770063 C52.2210554,52.2459997 52.337151,51.9498374 52.337151,51.5885193 C52.337151,51.2301629 52.2210554,50.9340006 51.9876795,50.7000324 L39.6738427,38.3861957 C39.3634646,38.1273498 39.0536788,38 38.74567,38 C38.3849443,38 38.0911513,38.1155033 37.8571831,38.3471022 C37.6285458,38.5787012 37.5124502,38.8748635 37.5124502,39.2355892 L37.5124502,46.646755 L37.5124502,56.5308761 Z" id="Combined-Shape" fill="#FFFFFF"></path>
            </g>
        </g>
    </g>
</svg>