<?xml version="1.0" standalone="no"?>
<!DOCTYPE svg PUBLIC "-//W3C//DTD SVG 20010904//EN"
 "http://www.w3.org/TR/2001/REC-SVG-20010904/DTD/svg10.dtd">
<svg version="1.0" xmlns="http://www.w3.org/2000/svg"
 width="512.000000pt" height="512.000000pt" viewBox="0 0 512.000000 512.000000"
 preserveAspectRatio="xMidYMid meet">
<metadata>
Created by potrace 1.11, written by Peter Selinger 2001-2013
</metadata>
<g transform="translate(0.000000,512.000000) scale(0.100000,-0.100000)"
fill="#000000" stroke="none">
<path d="M653 5110 c-75 -31 -72 -151 5 -181 15 -6 182 -60 372 -119 190 -60
431 -135 535 -168 105 -33 245 -77 312 -97 l122 -38 -24 -48 c-13 -26 -31 -75
-40 -110 l-16 -64 -807 0 c-444 1 -825 -3 -847 -8 -101 -21 -187 -94 -224
-191 -20 -50 -20 -80 -18 -1806 l2 -1755 23 -50 c27 -59 71 -108 127 -140 42
-25 139 -47 174 -40 20 4 21 0 21 -110 0 -112 1 -116 28 -146 21 -24 38 -32
68 -34 42 -3 60 6 87 45 13 19 17 47 17 132 l0 108 28 1 c123 4 3945 3 3947
-2 2 -3 5 -55 6 -115 1 -89 5 -114 19 -132 46 -56 135 -49 164 12 11 24 16 63
16 135 0 56 3 101 8 102 4 0 31 2 59 5 110 8 208 77 255 179 l23 50 2 1755 c2
1727 2 1756 -18 1806 -38 99 -127 174 -230 192 -24 4 -405 8 -846 7 -442 0
-803 2 -804 5 -7 45 -36 134 -57 177 l-21 39 232 73 c128 40 302 94 387 121
487 152 704 221 728 232 82 39 66 166 -22 182 -25 5 -79 -8 -212 -50 -99 -31
-192 -60 -209 -64 -16 -5 -50 -15 -75 -23 -48 -16 -496 -157 -595 -187 -33
-10 -130 -41 -216 -68 l-157 -49 -43 34 c-111 85 -263 129 -418 120 -131 -7
-220 -38 -326 -112 l-60 -42 -425 133 c-234 74 -477 150 -540 170 -63 19 -187
58 -275 86 -174 55 -209 62 -242 48z m2014 -494 c85 -23 144 -56 204 -116 57
-56 101 -129 113 -185 l6 -30 -430 0 c-376 0 -430 2 -430 15 0 38 63 145 117
198 114 113 273 157 420 118z m2179 -545 c52 -34 49 71 51 -1766 2 -1184 -1
-1720 -8 -1743 -6 -18 -23 -40 -37 -50 -24 -16 -169 -17 -2282 -18 -1842 -1
-2261 1 -2288 12 -65 26 -61 -90 -61 1789 0 1208 4 1715 11 1730 13 23 44 48
71 55 10 3 1032 5 2270 5 1881 -1 2255 -3 2273 -14z"/>
<path d="M1959 3896 c-2 -2 -101 -7 -219 -10 -118 -4 -244 -9 -280 -11 -36 -2
-121 -6 -190 -10 -139 -7 -218 -12 -330 -20 -162 -11 -208 -15 -290 -21 -150
-11 -152 -13 -191 -274 -26 -180 -26 -180 -34 -271 -3 -41 -8 -81 -10 -89 -2
-8 -7 -51 -10 -95 -3 -44 -8 -100 -10 -125 -20 -227 -27 -885 -12 -1110 5 -63
10 -142 12 -175 3 -33 7 -78 9 -100 3 -22 8 -71 11 -110 3 -38 8 -77 10 -85 2
-8 7 -45 10 -82 3 -37 8 -77 10 -89 3 -13 7 -41 10 -64 3 -22 8 -51 10 -65 2
-14 7 -43 10 -65 21 -155 37 -169 208 -180 59 -4 120 -8 135 -10 15 -2 77 -6
137 -10 61 -4 130 -9 155 -10 25 -2 110 -6 190 -10 80 -3 168 -8 195 -10 312
-26 1751 -26 2135 0 25 1 112 6 193 10 82 4 167 8 190 10 23 2 94 7 157 10 63
4 122 9 131 10 8 2 67 6 130 10 126 7 170 22 188 63 11 23 31 132 47 257 2 22
7 51 9 65 2 14 6 43 9 65 3 22 8 64 11 93 4 29 8 69 10 90 2 20 6 60 9 87 4
28 8 79 11 115 2 36 7 119 12 185 4 66 8 282 8 480 -1 388 -6 512 -36 800 -27
261 -28 266 -44 369 -7 50 -17 109 -20 131 -18 126 -20 130 -58 153 -22 14
-59 22 -122 26 -121 9 -232 17 -275 21 -20 2 -88 7 -150 10 -63 4 -144 8 -180
10 -36 2 -130 7 -210 11 -80 3 -176 8 -215 10 -97 6 -1471 15 -1476 10z m1461
-210 c41 -2 140 -7 220 -11 276 -13 438 -22 530 -30 25 -2 88 -7 140 -10 118
-7 133 -9 137 -21 8 -29 49 -332 58 -439 3 -38 8 -86 10 -105 5 -41 11 -114
22 -265 15 -229 8 -912 -13 -1110 -2 -22 -6 -62 -9 -90 -5 -53 -13 -137 -20
-207 -8 -75 -47 -343 -51 -347 -5 -5 -35 -8 -156 -16 -57 -3 -123 -8 -148 -10
-52 -5 -154 -11 -325 -20 -66 -4 -151 -8 -190 -10 -493 -26 -1640 -26 -2130 0
-44 2 -129 7 -190 10 -110 5 -235 13 -330 20 -27 2 -95 7 -150 10 -100 7 -145
12 -150 17 -2 2 -6 23 -9 48 -3 25 -8 54 -10 65 -2 11 -7 45 -10 76 -4 31 -9
67 -11 80 -3 13 -7 51 -10 84 -3 33 -8 76 -10 95 -7 62 -16 154 -19 205 -2 28
-8 102 -12 165 -16 218 -9 878 10 1095 4 40 15 157 22 220 5 51 31 255 39 310
2 17 7 51 11 78 4 26 9 49 13 51 3 2 53 7 111 10 108 7 193 13 290 21 30 2
118 7 195 10 77 4 163 8 190 10 28 2 156 7 285 11 129 3 237 8 239 10 5 5
1330 -4 1431 -10z"/>
<path d="M4173 3473 c-11 -10 -25 -27 -31 -38 -10 -19 -9 -109 2 -165 3 -14 8
-54 12 -90 4 -36 8 -74 10 -85 1 -11 3 -26 3 -33 1 -8 15 -27 32 -43 42 -39
87 -39 130 -1 41 37 42 57 7 327 -10 76 -15 94 -39 117 -33 33 -94 38 -126 11z"/>
<path d="M4255 2861 c-11 -5 -29 -19 -40 -31 -18 -19 -20 -35 -18 -129 3 -213
2 -638 -1 -701 -20 -356 -21 -333 7 -366 48 -57 140 -40 167 30 7 21 16 131
26 326 6 121 6 555 0 684 -6 128 -16 159 -61 180 -36 18 -50 19 -80 7z"/>
<path d="M4693 783 c-12 -2 -34 -18 -48 -34 -72 -87 23 -197 124 -144 46 23
62 103 28 144 -11 12 -72 43 -79 40 -2 -1 -13 -4 -25 -6z"/>
</g>
</svg>
